<svg width="30" height="30" viewBox="0 0 30 30" fill="none" xmlns="http://www.w3.org/2000/svg">
<g clip-path="url(#clip0_4682_13517)">
<path d="M21.3096 21.4998C22.5096 21.4998 23.4971 20.5123 23.4971 19.3123C23.4971 17.8623 21.3096 15.4873 21.3096 15.4873C21.3096 15.4873 19.1221 17.8623 19.1221 19.3123C19.1221 20.5123 20.1096 21.4998 21.3096 21.4998Z" fill="#979797"/>
<path d="M25 25H5V27H25V25Z" fill="#979797"/>
<path d="M11.0344 19.75C11.3719 20.0875 11.8094 20.25 12.2469 20.25C12.6844 20.25 13.1219 20.0875 13.4594 19.75L17.9969 15.2125C18.6594 14.55 18.6594 13.4625 17.9969 12.8L9.20938 4L7.88438 5.325L10.9219 8.3625L6.49688 12.7875C5.83437 13.45 5.83437 14.5375 6.49688 15.2L11.0344 19.75ZM12.2469 9.7L16.5469 14H7.94688L12.2469 9.7Z" fill="#979797"/>
</g>
<defs>
<clipPath id="clip0_4682_13517">
<rect width="30" height="30" fill="white"/>
</clipPath>
</defs>
</svg>
