<svg width="30" height="30" viewBox="0 0 30 30" fill="none" xmlns="http://www.w3.org/2000/svg">
<g clip-path="url(#clip0_1529_8431)">
<path d="M13.7809 17.9162C13.7065 17.6278 13.5561 17.3646 13.3455 17.154C13.1349 16.9434 12.8718 16.7931 12.5834 16.7187L7.47086 15.4004C7.38364 15.3756 7.30687 15.3231 7.25221 15.2508C7.19754 15.1784 7.16797 15.0902 7.16797 14.9996C7.16797 14.9089 7.19754 14.8207 7.25221 14.7484C7.30687 14.676 7.38364 14.6235 7.47086 14.5987L12.5834 13.2796C12.8717 13.2052 13.1348 13.055 13.3454 12.8446C13.556 12.6341 13.7063 12.3711 13.7809 12.0829L15.0992 6.97039C15.1237 6.88282 15.1762 6.80567 15.2486 6.75072C15.3211 6.69576 15.4095 6.66602 15.5004 6.66602C15.5914 6.66602 15.6798 6.69576 15.7523 6.75072C15.8247 6.80567 15.8772 6.88282 15.9017 6.97039L17.2192 12.0829C17.2936 12.3713 17.4439 12.6345 17.6545 12.8451C17.8651 13.0557 18.1283 13.206 18.4167 13.2804L23.5292 14.5979C23.6171 14.6221 23.6946 14.6746 23.7499 14.7471C23.8052 14.8197 23.8351 14.9084 23.8351 14.9996C23.8351 15.0908 23.8052 15.1794 23.7499 15.252C23.6946 15.3245 23.6171 15.377 23.5292 15.4012L18.4167 16.7187C18.1283 16.7931 17.8651 16.9434 17.6545 17.154C17.4439 17.3646 17.2936 17.6278 17.2192 17.9162L15.9009 23.0287C15.8764 23.1163 15.8239 23.1934 15.7514 23.2484C15.679 23.3034 15.5905 23.3331 15.4996 23.3331C15.4087 23.3331 15.3202 23.3034 15.2478 23.2484C15.1754 23.1934 15.1229 23.1163 15.0984 23.0287L13.7809 17.9162Z" stroke="#979797" stroke-width="1.33333" stroke-linecap="round" stroke-linejoin="round"/>
<path d="M22.167 7.5V10.8333" stroke="#979797" stroke-width="1.33333" stroke-linecap="round" stroke-linejoin="round"/>
<path d="M23.8333 9.16699H20.5" stroke="#979797" stroke-width="1.33333" stroke-linecap="round" stroke-linejoin="round"/>
<path d="M8.83301 19.167V20.8337" stroke="#979797" stroke-width="1.33333" stroke-linecap="round" stroke-linejoin="round"/>
<path d="M9.66667 20H8" stroke="#979797" stroke-width="1.33333" stroke-linecap="round" stroke-linejoin="round"/>
</g>
<defs>
<clipPath id="clip0_1529_8431">
<rect width="21" height="20" fill="white" transform="translate(5 5)"/>
</clipPath>
</defs>
</svg>
